<svg width="63" height="63" viewBox="0 0 63 63" fill="none" xmlns="http://www.w3.org/2000/svg">
<path d="M53.3291 37.5533C49.4638 38.6372 45.3796 38.6727 41.496 37.6562C37.6124 36.6397 34.0694 34.6078 31.2308 31.7692C28.3922 28.9306 26.3603 25.3876 25.3438 21.504C24.3272 17.6204 24.3628 13.5362 25.4467 9.6709C21.6358 10.7316 18.1694 12.7722 15.3926 15.5895C12.6159 18.4068 10.6257 21.9025 9.62035 25.7283C8.61501 29.5542 8.62959 33.5766 9.66264 37.3951C10.6957 41.2135 12.7111 44.6946 15.5082 47.4917C18.3053 50.2889 21.7865 52.3043 25.6049 53.3373C29.4234 54.3704 33.4458 54.385 37.2717 53.3796C41.0975 52.3743 44.5931 50.3841 47.4105 47.6074C50.2278 44.8306 52.2684 41.3642 53.3291 37.5533Z" fill="#be185d"/>
</svg>