<svg width="1178" height="824" viewBox="0 0 1178 824" fill="none" xmlns="http://www.w3.org/2000/svg">
<path d="M137.891 822.07L7.15116 570.63C3.23316 563.091 0.911162 554.826 0.332162 546.351C-0.247838 537.875 0.926167 529.371 3.78117 521.37L222.441 25.5401C226.328 17.4591 232.584 10.7551 240.377 6.31914C248.169 1.88314 257.128 -0.072854 266.061 0.710146L943.91 55.8701C951.24 56.5161 958.28 58.9831 964.41 63.0481C970.54 67.1121 975.55 72.6432 979 79.1402L1176.2 507.3C1178.68 518.022 1178.24 529.212 1174.94 539.71L1086.1 822.07H137.891Z" fill="#F4F4F4"/>
<path d="M805.4 124.26H335.43V469.56H805.4V124.26Z" fill="#868A91"/>
<path d="M793.95 136.109H349.719V457.709H793.95V136.109Z" fill="white"/>
<path d="M349.73 273.669L442.24 136.109H563.86L349.73 435.009V273.669Z" fill="#F4F4F4"/>
<path d="M438.238 457.56L697.438 136.38L794.56 136.17L793.66 208.94L588.678 457.12L438.238 457.56Z" fill="#F4F4F4"/>
<path d="M496.549 134.9H485.52V457.73H496.549V134.9Z" fill="#868A91"/>
<path d="M499.909 136.109H496.309V457.699H499.909V136.109Z" fill="#868A91"/>
<path opacity="0.2" d="M499.909 136.109H496.309V457.699H499.909V136.109Z" fill="black"/>
<path d="M661.108 135.01H650.078V457.84H661.108V135.01Z" fill="#868A91"/>
<path d="M664.471 136.221H660.871V457.811H664.471V136.221Z" fill="#868A91"/>
<path opacity="0.2" d="M664.471 136.221H660.871V457.811H664.471V136.221Z" fill="black"/>
<path d="M350.63 136H346.59V457.82H350.63V136Z" fill="#868A91"/>
<path opacity="0.2" d="M350.63 136H346.59V457.82H350.63V136Z" fill="black"/>
<path d="M809.24 124.26H805.18V469.56H809.24V124.26Z" fill="#868A91"/>
<path opacity="0.2" d="M809.24 124.26H805.18V469.56H809.24V124.26Z" fill="black"/>
<path d="M708.91 457.671L793.95 359.221V426.401L763.17 457.671H708.91Z" fill="#F4F4F4"/>
<path d="M346.789 212.509V223.539H799.05V212.509H346.789Z" fill="#868A91"/>
<path opacity="0.2" d="M828.13 454.42H823.67V470H828.13V454.42Z" fill="black"/>
<path d="M591.058 374.519L593.608 353.579C593.55 353.091 593.313 352.642 592.944 352.318C592.575 351.993 592.1 351.816 591.608 351.819L584.928 352.999C582.038 352.999 578.578 351.669 577.668 346.919L574.498 335.729L570.779 334.589C570.469 334.27 570.269 333.859 570.21 333.418C570.151 332.977 570.234 332.529 570.448 332.139L575.888 321.139L575.708 313.029C575.708 312.689 575.798 312.369 575.788 312.029C575.348 300.339 583.168 296.869 583.168 296.869C583.168 296.869 599.168 285.949 611.168 291.479C635.398 302.719 618.828 332.479 618.828 332.479L622.298 365.479L591.058 374.519Z" fill="#FC9D9D"/>
<path d="M576.871 318.85C576.871 317.46 577.731 316.34 578.871 316.34C580.011 316.34 580.871 317.34 580.981 318.63C581.091 319.92 580.121 321.15 578.981 321.15C578.69 321.141 578.404 321.074 578.139 320.953C577.875 320.832 577.637 320.659 577.441 320.445C577.244 320.23 577.092 319.979 576.994 319.705C576.897 319.431 576.854 319.14 576.871 318.85Z" fill="black"/>
<path d="M577.372 318.139C577.4 318.022 577.472 317.921 577.572 317.854C577.672 317.787 577.793 317.761 577.912 317.779C578.026 317.812 578.125 317.884 578.191 317.983C578.257 318.082 578.286 318.201 578.272 318.319C578.238 318.433 578.165 318.53 578.066 318.596C577.968 318.662 577.849 318.691 577.732 318.679C577.616 318.649 577.516 318.577 577.449 318.477C577.383 318.378 577.356 318.258 577.372 318.139Z" fill="white"/>
<path opacity="0.15" d="M601.799 351.619L593.329 355.879L593.609 353.579C593.55 353.092 593.313 352.643 592.944 352.318C592.576 351.993 592.1 351.816 591.609 351.819L590.149 352.089C590.011 352.042 589.864 352.024 589.719 352.039L601.339 350.479C601.474 350.472 601.608 350.508 601.722 350.58C601.836 350.653 601.925 350.76 601.975 350.885C602.026 351.011 602.036 351.149 602.005 351.281C601.973 351.412 601.901 351.531 601.799 351.619Z" fill="black"/>
<path d="M575.809 339.91C577.382 339.677 578.911 339.201 580.339 338.5C580.412 338.461 580.495 338.447 580.577 338.459C580.658 338.471 580.734 338.509 580.793 338.567C580.852 338.624 580.891 338.699 580.905 338.781C580.918 338.862 580.906 338.946 580.869 339.02C579.919 340.849 578.283 342.226 576.319 342.85L575.809 339.91Z" fill="white"/>
<path d="M591.201 373.38C591.201 373.38 584.421 379.21 580.271 390.97C580.271 390.97 576.661 398.58 589.441 388.61C589.441 388.61 614.891 372.78 622.171 364.72C622.291 364.58 591.201 373.38 591.201 373.38Z" fill="#FC9D9D"/>
<path d="M576.292 311.87C576.492 312.3 578.292 312.03 580.452 312.18C582.612 312.33 584.342 312.78 584.612 312.37C584.732 312.18 584.412 311.78 583.702 311.37C582.739 310.867 581.677 310.58 580.592 310.53C579.498 310.451 578.4 310.607 577.372 310.99C576.592 311.3 576.212 311.66 576.292 311.87Z" fill="black"/>
<path d="M603.759 320.33C603.759 320.33 583.759 318.83 581.429 297.76C578.188 300.589 576.171 304.564 575.799 308.85C575.796 308.967 575.754 309.08 575.679 309.171C575.605 309.262 575.502 309.325 575.388 309.352C575.273 309.378 575.153 309.365 575.047 309.316C574.94 309.267 574.853 309.184 574.799 309.08C571.799 304.29 562.999 289.08 582.709 286.9C582.709 286.9 607.919 272.76 625.709 283.46C625.709 283.46 642.949 294.01 640.339 324.41C640.339 324.41 646.049 340.29 649.519 349.84C649.519 349.84 649.779 358 644.089 358.52L622.279 365.59C622.279 365.59 607.039 358.12 613.279 327.44L603.759 320.33Z" fill="black"/>
<path opacity="0.15" d="M606.738 330.639L611.348 329.109L613.248 332.269L606.738 330.639Z" fill="black"/>
<path d="M606.001 330.821L604.001 323.231C603.499 321.506 603.671 319.654 604.481 318.051C607.371 312.581 615.951 313.981 615.221 321.871C614.361 331.161 606.431 330.561 606.431 330.561L606.001 330.821Z" fill="#FC9D9D"/>
<path opacity="0.3" d="M606.909 322.469C606.892 322.672 606.952 322.874 607.079 323.034C607.205 323.194 607.388 323.299 607.589 323.329C607.772 323.323 607.947 323.251 608.081 323.126C608.216 323.001 608.3 322.831 608.319 322.649C608.355 321.811 608.51 320.983 608.779 320.189C608.999 319.626 609.391 319.146 609.899 318.819C610.379 318.609 610.899 318.739 611.539 319.129C611.605 319.185 611.688 319.216 611.774 319.216C611.861 319.216 611.944 319.185 612.009 319.129C612.129 319.129 612.249 319.019 612.379 318.789C612.467 318.614 612.483 318.411 612.423 318.224C612.364 318.037 612.233 317.881 612.059 317.789C611.663 317.535 611.215 317.372 610.748 317.312C610.282 317.251 609.807 317.295 609.359 317.439C608.917 317.654 608.524 317.958 608.204 318.331C607.884 318.704 607.644 319.139 607.499 319.609C607.133 320.52 606.933 321.488 606.909 322.469Z" fill="black"/>
<path d="M607.891 332.641C608.353 332.639 608.806 332.511 609.201 332.271C609.479 332.099 609.72 331.873 609.911 331.607C610.101 331.341 610.237 331.04 610.311 330.721V330.001H609.441V330.611C609.358 330.918 609.186 331.194 608.947 331.404C608.708 331.614 608.412 331.749 608.097 331.792C607.782 331.835 607.461 331.785 607.174 331.647C606.888 331.509 606.648 331.289 606.485 331.016C606.323 330.742 606.244 330.427 606.259 330.109C606.275 329.791 606.383 329.485 606.572 329.228C606.76 328.972 607.02 328.777 607.318 328.667C607.617 328.557 607.941 328.538 608.251 328.611L608.451 327.771C608.133 327.694 607.802 327.68 607.478 327.732C607.154 327.783 606.844 327.898 606.565 328.07C606.286 328.242 606.044 328.468 605.853 328.734C605.662 329 605.525 329.302 605.451 329.621C605.298 330.266 605.405 330.945 605.751 331.511C605.923 331.789 606.149 332.03 606.415 332.221C606.681 332.411 606.982 332.547 607.301 332.621C607.496 332.653 607.694 332.66 607.891 332.641Z" fill="white"/>
<path d="M636.919 426.67L627.919 486.67C632.549 502.67 643.549 545.67 634.129 559C621.699 576.65 600.809 576.29 600.809 576.29H531.519L488.689 537.29L486.059 534.9C486.059 534.9 516.289 516.11 537.209 508.42C526.109 486.42 551.369 440.79 551.659 440.54C549.659 436.16 545.589 424.41 551.799 413.32C559.639 399.32 591.099 373.87 591.099 373.87C591.099 373.87 579.999 387.35 579.999 392.75C579.999 398.15 610.879 371.41 610.879 371.41C610.879 371.41 619.099 362.71 627.249 365.01C627.249 365.01 638.669 366.1 639.579 382.13C640.489 398.16 638.419 426.86 638.419 426.86L636.919 426.67Z" fill="#BE185D"/>
<path opacity="0.2" d="M636.919 426.67L627.919 486.67C632.549 502.67 643.549 545.67 634.129 559C621.699 576.65 600.809 576.29 600.809 576.29H531.519L488.689 537.29L486.059 534.9C486.059 534.9 516.289 516.11 537.209 508.42C526.109 486.42 551.369 440.79 551.659 440.54C549.659 436.16 545.589 424.41 551.799 413.32C559.639 399.32 591.099 373.87 591.099 373.87C591.099 373.87 579.999 387.35 579.999 392.75C579.999 398.15 610.879 371.41 610.879 371.41C610.879 371.41 619.099 362.71 627.249 365.01C627.249 365.01 638.669 366.1 639.579 382.13C640.489 398.16 638.419 426.86 638.419 426.86L636.919 426.67Z" fill="black"/>
<path opacity="0.2" d="M608.732 425.85H607.642V408.96L606.232 408.75L603.792 465.69L565.322 498.45L555.512 497.89L562.462 505.48L612.342 470.45L608.732 425.85Z" fill="black"/>
<path opacity="0.2" d="M551.66 440.5C551.66 440.5 564.08 442.88 574.11 443.88V444.76C566.239 444.569 558.397 443.74 550.66 442.28L551.66 440.5Z" fill="black"/>
<path opacity="0.2" d="M628.9 483.65L627.9 486.65L629.79 493.47L568.66 515.27C568.66 515.27 558.5 518.33 550.25 516.74L628.9 483.65Z" fill="black"/>
<path d="M488.688 537.249C488.688 537.249 468.458 550.049 467.158 556.639C466.618 559.309 471.058 585.569 476.538 615.939C476.538 615.939 462.648 560.699 464.268 554.309C465.888 547.919 486.058 534.859 486.058 534.859L488.688 537.249Z" fill="#FC9D9D"/>
<path d="M530.001 695.659C531.248 699.827 533.207 703.749 535.791 707.249C538.791 711.309 541.991 717.989 536.361 723.969C529.431 731.329 527.281 730.459 523.521 733.969C521.521 724.519 515.711 709.889 515.711 709.889C515.711 709.889 517.901 684.449 517.951 656.279L530.001 695.659Z" fill="#FC9D9D"/>
<path d="M495.26 737.999C495.26 737.999 490.72 750.269 503.26 739.729L525.95 713.729C525.95 713.729 531.03 708.399 531.32 701.229C531.323 701.114 531.363 701.002 531.433 700.911C531.504 700.819 531.601 700.752 531.712 700.719C531.822 700.685 531.941 700.688 532.05 700.726C532.159 700.764 532.254 700.835 532.32 700.929C534.08 703.699 537.64 709.449 539.95 714.139C540.602 715.467 540.806 716.969 540.532 718.422C540.258 719.876 539.521 721.201 538.43 722.199C530.69 729.299 508.62 752.199 495.7 759.559C495.7 759.559 483.95 765.409 487.89 754.859L495.26 737.999Z" fill="#21252B"/>
<path d="M538.48 722.16C539.351 721.347 539.994 720.32 540.345 719.182C540.696 718.043 540.742 716.832 540.48 715.67C539.468 717.181 538.313 718.591 537.03 719.88L506.59 749.5C500.17 755.63 489.59 761.12 489.59 761.12C492.14 761.33 495.78 759.52 495.78 759.52C508.67 752.19 530.74 729.26 538.48 722.16Z" fill="black"/>
<path d="M523.469 730.94C523.964 732.88 524.166 734.882 524.069 736.88C523.229 743.73 506.799 754.44 496.209 761.88C484.719 769.96 476.279 769.09 478.029 765.79C483.839 754.89 495.029 714.651 495.029 714.651C495.029 714.651 484.649 660.79 476.569 615.92C471.089 585.55 466.649 559.29 467.189 556.62C468.489 550.03 488.719 537.23 488.719 537.23L531.549 576.23L507.549 582.29C517.929 602.42 517.979 622.631 517.929 656.201C517.929 684.371 515.689 709.81 515.689 709.81C515.689 709.81 521.489 721.49 523.469 730.94Z" fill="#FC9D9D"/>
<path d="M567.091 514.14C567.091 514.14 615.601 494.48 628.901 483.65C629.281 483.34 629.711 482.97 630.131 482.58C631.857 480.996 633.013 478.887 633.421 476.58C635.801 463.34 636.921 426.66 636.921 426.66L608.731 425.84L608.001 468.31L564.301 501.11L567.091 514.14Z" fill="#FC9D9D"/>
<path d="M566.261 500.11L555.511 497.9C555.058 497.815 554.594 497.815 554.141 497.9L544.251 499.82C543.657 499.932 543.101 500.189 542.631 500.57L533.121 507.57C532.834 507.827 532.617 508.152 532.489 508.516C532.362 508.88 532.328 509.27 532.391 509.65C532.468 510.053 532.697 510.411 533.031 510.65L532.761 510.81C532.47 510.983 532.232 511.232 532.07 511.529C531.908 511.826 531.829 512.161 531.841 512.5C531.855 512.77 531.938 513.032 532.081 513.261C532.225 513.49 532.424 513.679 532.661 513.81C532.661 513.81 531.661 515.21 533.251 516.81C533.228 517.11 533.267 517.412 533.366 517.696C533.465 517.981 533.621 518.241 533.826 518.462C534.031 518.683 534.279 518.859 534.556 518.979C534.832 519.099 535.13 519.161 535.431 519.16C535.921 519.16 537.051 518.78 537.541 518.75L548.211 516.68C548.211 516.68 561.471 516.94 568.661 513.59L566.261 500.11Z" fill="#FC9D9D"/>
<g opacity="0.15">
<path opacity="0.15" d="M543.977 505.395L533.82 509.799L534.047 510.322L544.204 505.918L543.977 505.395Z" fill="black"/>
</g>
<g opacity="0.15">
<path opacity="0.15" d="M544.789 509.397L534.324 512.721L534.497 513.264L544.962 509.94L544.789 509.397Z" fill="black"/>
</g>
<g opacity="0.15">
<path opacity="0.15" d="M545.624 513.575L534.168 516.525L534.31 517.077L545.766 514.127L545.624 513.575Z" fill="black"/>
</g>
<path d="M542.9 449.161L544.18 447.521C546.02 445.161 547.01 443.881 549.45 442.621L551.78 441.961C552.363 442.114 552.899 442.409 553.34 442.821L564.34 450.431C564.608 450.707 564.801 451.046 564.903 451.416C565.004 451.787 565.01 452.177 564.92 452.551C564.88 452.757 564.796 452.953 564.676 453.125C564.555 453.297 564.4 453.442 564.22 453.551L564.48 453.731C564.743 453.912 564.955 454.156 565.099 454.441C565.242 454.726 565.311 455.042 565.3 455.361C565.286 455.653 565.194 455.935 565.032 456.178C564.869 456.422 564.644 456.616 564.38 456.741C564.38 456.741 565.32 458.201 563.6 459.741C563.604 460.043 563.544 460.343 563.426 460.621C563.308 460.9 563.134 461.151 562.914 461.358C562.694 461.566 562.434 461.726 562.149 461.828C561.865 461.93 561.562 461.972 561.26 461.951C560.77 461.951 559.67 461.461 559.18 461.401L548.67 458.641C548.67 458.641 547 463.001 541 464.001L540 457.711C539.984 454.617 541.005 451.607 542.9 449.161Z" fill="#FC9D9D"/>
<g opacity="0.15">
<path opacity="0.15" d="M553.71 447.587L553.449 448.094L563.296 453.152L563.556 452.645L553.71 447.587Z" fill="black"/>
</g>
<g opacity="0.15">
<path opacity="0.15" d="M552.579 451.387L552.371 451.918L562.595 455.921L562.803 455.39L552.579 451.387Z" fill="black"/>
</g>
<g opacity="0.15">
<path opacity="0.15" d="M551.494 455.552L551.316 456.094L562.555 459.789L562.733 459.247L551.494 455.552Z" fill="black"/>
</g>
<path d="M640.798 324.817L632.934 327.244L633.821 330.12L641.685 327.694L640.798 324.817Z" fill="white"/>
<path opacity="0.15" d="M524.21 569.609L495.59 582.759H501.8C501.8 582.759 517.14 613.299 513 660.579L512 709.729L518.27 733.939C518.27 733.939 522.66 740.999 518.27 744.009C521.5 741.529 523.78 740.179 524.07 737.879C524.24 736.469 523.99 736.369 523.47 733.939C521.47 724.489 515.66 709.859 515.66 709.859C515.66 709.859 517.85 684.419 517.9 656.249C517.95 622.679 517.9 602.469 507.52 582.339L531.52 576.279L524.21 569.609Z" fill="black"/>
<path opacity="0.15" d="M536.308 724C541.958 718 538.748 711.3 535.708 707.24C533.149 703.739 531.217 699.821 529.998 695.659L517.898 656.27V663.7L526.898 695.289C528.083 699.41 529.762 703.372 531.898 707.09C534.898 712.3 538.398 720.83 533.898 726.43C534.608 725.73 535.418 724.92 536.308 724Z" fill="black"/>
<path opacity="0.15" d="M634.339 467C634.339 475 623.169 482.29 623.169 482.29C605.979 494.58 566.469 512.29 566.469 512.29L567.369 514.05C571.369 512.42 616.189 494.05 628.899 483.67C629.279 483.36 629.709 482.99 630.129 482.6C631.869 481.027 633.028 478.913 633.419 476.6C633.96 473.427 634.267 470.218 634.339 467Z" fill="black"/>
<path opacity="0.15" d="M566.468 512.27C566.468 512.27 560.828 515.86 548.398 515.5L534.398 518.96L536.168 519.229L547.468 516.909C547.468 516.909 564.118 516.15 567.128 514.14L566.468 512.27Z" fill="black"/>
<path d="M482.261 755.001C482.261 755.001 477.721 767.271 490.261 756.731L512.951 730.731C515.797 726.874 517.602 722.348 518.191 717.591C518.2 717.5 518.238 717.414 518.298 717.345C518.358 717.276 518.439 717.228 518.528 717.207C518.617 717.186 518.711 717.193 518.795 717.228C518.88 717.263 518.952 717.323 519.001 717.401C520.601 719.901 524.501 726.131 527.001 731.141C527.653 732.468 527.857 733.971 527.583 735.424C527.309 736.877 526.571 738.202 525.481 739.201C517.741 746.301 495.671 769.201 482.751 776.561C482.751 776.561 471.001 782.411 474.941 771.861L482.261 755.001Z" fill="#21252B"/>
<path d="M525.48 739.16C526.351 738.347 526.994 737.32 527.345 736.182C527.696 735.043 527.742 733.832 527.48 732.67C526.468 734.181 525.313 735.591 524.03 736.88L493.59 766.5C487.17 772.63 476.59 778.12 476.59 778.12C479.14 778.33 482.78 776.52 482.78 776.52C495.67 769.19 517.74 746.26 525.48 739.16Z" fill="black"/>
<path d="M771 99.3999H874.73V681.3H873.31C871.69 681.3 869.93 681.15 869.31 681.15C869.09 681.15 868.39 681.6 868.18 681.6C867.45 681.6 863.96 685.87 862.93 685.87C861.9 685.87 860.49 683.4 859.33 683.4C856.91 683.4 855.83 679.58 854.64 681.3C854.52 681.48 854.3 681.3 854.13 681.3C853.27 681.3 850.67 683.79 847.7 684.15C846.35 684.339 844.97 684.312 843.63 684.07C842.24 683.77 840.02 681.3 839.12 681.3H838.42C837.81 681.3 835.19 685.95 833.26 686.3C832.44 686.36 831.61 686.36 830.79 686.3C826.7 686.3 823.79 681.3 822.71 681.3H822.17C821.04 681.3 816 685.64 814.61 685.72C813.87 685.72 813.13 685.72 812.39 685.72C810.91 685.72 807.77 681.3 807.39 681.3H806.79C806.1 681.3 803.51 687.24 802.62 687.37C801.34 687.52 800.06 687.52 798.78 687.37C797.78 687.29 793.56 681.3 792.7 681.3H792.07C791.21 681.3 787.4 686.14 786.58 686.17C785.12 686.24 786.24 686.36 784.78 686.17C782.41 685.87 777.43 681.3 776.44 681.3H771V99.3999Z" fill="#BE185D"/>
<path opacity="0.6" d="M771 99.3999H874.73V681.3H873.31C871.69 681.3 869.93 681.15 869.31 681.15C869.09 681.15 868.39 681.6 868.18 681.6C867.45 681.6 863.96 685.87 862.93 685.87C861.9 685.87 860.49 683.4 859.33 683.4C856.91 683.4 855.83 679.58 854.64 681.3C854.52 681.48 854.3 681.3 854.13 681.3C853.27 681.3 850.67 683.79 847.7 684.15C846.35 684.339 844.97 684.312 843.63 684.07C842.24 683.77 840.02 681.3 839.12 681.3H838.42C837.81 681.3 835.19 685.95 833.26 686.3C832.44 686.36 831.61 686.36 830.79 686.3C826.7 686.3 823.79 681.3 822.71 681.3H822.17C821.04 681.3 816 685.64 814.61 685.72C813.87 685.72 813.13 685.72 812.39 685.72C810.91 685.72 807.77 681.3 807.39 681.3H806.79C806.1 681.3 803.51 687.24 802.62 687.37C801.34 687.52 800.06 687.52 798.78 687.37C797.78 687.29 793.56 681.3 792.7 681.3H792.07C791.21 681.3 787.4 686.14 786.58 686.17C785.12 686.24 786.24 686.36 784.78 686.17C782.41 685.87 777.43 681.3 776.44 681.3H771V99.3999Z" fill="white"/>
<path d="M804.18 99.3999H796.54V685.23C797.54 686.38 798.44 687.34 798.83 687.37C800.1 687.52 801.39 687.52 802.67 687.37C803 687.37 803.56 686.47 804.18 685.43V99.4299V99.3999Z" fill="#BE185D"/>
<path d="M818.14 99.4609H812.59V685.731C813.26 685.731 813.94 685.731 814.59 685.731C815.24 685.731 816.66 684.731 818.11 683.731V99.4609H818.14Z" fill="#BE185D"/>
<path d="M834.32 99.4609H828.77V685.841C829.4 686.101 830.08 686.24 830.77 686.251C831.59 686.311 832.42 686.311 833.24 686.251C833.61 686.16 833.95 685.985 834.24 685.741V99.4609H834.32Z" fill="#BE185D"/>
<path d="M850 99.4609H844.45V684.191C845.55 684.316 846.65 684.316 847.75 684.191C848.53 684.083 849.28 683.864 850 683.541V99.5409V99.4609Z" fill="#BE185D"/>
<path d="M864 99.4609H858.44V683.201C858.74 683.33 859.06 683.398 859.38 683.401C860.54 683.401 861.82 685.871 862.98 685.871C863.36 685.777 863.7 685.584 863.98 685.311V99.4609H864Z" fill="#BE185D"/>
<path d="M788.63 99.4609H783.07V685.511C783.615 685.83 784.21 686.053 784.83 686.171C786.29 686.361 785.17 686.241 786.63 686.171C786.96 686.171 787.74 685.401 788.63 684.481V99.4809V99.4609Z" fill="#BE185D"/>
<path opacity="0.4" d="M804.18 99.3999H796.54V685.23C797.54 686.38 798.44 687.34 798.83 687.37C800.1 687.52 801.39 687.52 802.67 687.37C803 687.37 803.56 686.47 804.18 685.43V99.4299V99.3999Z" fill="white"/>
<path opacity="0.4" d="M818.14 99.4609H812.59V685.731C813.26 685.731 813.94 685.731 814.59 685.731C815.24 685.731 816.66 684.731 818.11 683.731V99.4609H818.14Z" fill="white"/>
<path opacity="0.4" d="M834.32 99.4609H828.77V685.841C829.4 686.101 830.08 686.24 830.77 686.251C831.59 686.311 832.42 686.311 833.24 686.251C833.61 686.16 833.95 685.985 834.24 685.741V99.4609H834.32Z" fill="white"/>
<path opacity="0.4" d="M850 99.4609H844.45V684.191C845.55 684.316 846.65 684.316 847.75 684.191C848.53 684.083 849.28 683.864 850 683.541V99.5409V99.4609Z" fill="white"/>
<path opacity="0.4" d="M864 99.4609H858.44V683.201C858.74 683.33 859.06 683.398 859.38 683.401C860.54 683.401 861.82 685.871 862.98 685.871C863.36 685.777 863.7 685.584 863.98 685.311V99.4609H864Z" fill="white"/>
<path opacity="0.4" d="M788.63 99.4609H783.07V685.511C783.615 685.83 784.21 686.053 784.83 686.171C786.29 686.361 785.17 686.241 786.63 686.171C786.96 686.171 787.74 685.401 788.63 684.481V99.4809V99.4609Z" fill="white"/>
<path d="M267 100.4H370.77V682.3H369.35C367.73 682.3 365.97 682.15 365.35 682.15C365.13 682.15 364.43 682.6 364.22 682.6C363.49 682.6 360 686.87 358.97 686.87C357.94 686.87 356.53 684.4 355.37 684.4C352.95 684.4 351.87 680.58 350.68 682.3C350.56 682.48 350.34 682.3 350.17 682.3C349.31 682.3 346.71 684.79 343.74 685.15C342.388 685.339 341.014 685.312 339.67 685.07C338.28 684.77 336.06 682.3 335.16 682.3H334.46C333.85 682.3 331.23 686.95 329.3 687.3C328.478 687.36 327.652 687.36 326.83 687.3C322.74 687.3 319.83 682.3 318.75 682.3H318.21C317.08 682.3 312.04 686.64 310.65 686.72C309.91 686.72 309.17 686.72 308.43 686.72C306.95 686.72 303.81 682.3 303.43 682.3H302.83C302.14 682.3 299.55 688.24 298.66 688.37C297.384 688.52 296.096 688.52 294.82 688.37C293.82 688.29 289.6 682.3 288.74 682.3H288.11C287.25 682.3 283.44 687.14 282.62 687.17C281.16 687.24 282.28 687.36 280.82 687.17C278.45 686.87 273.47 682.3 272.48 682.3H267V100.4Z" fill="#BE185D"/>
<path opacity="0.6" d="M267 100.4H370.77V682.3H369.35C367.73 682.3 365.97 682.15 365.35 682.15C365.13 682.15 364.43 682.6 364.22 682.6C363.49 682.6 360 686.87 358.97 686.87C357.94 686.87 356.53 684.4 355.37 684.4C352.95 684.4 351.87 680.58 350.68 682.3C350.56 682.48 350.34 682.3 350.17 682.3C349.31 682.3 346.71 684.79 343.74 685.15C342.388 685.339 341.014 685.312 339.67 685.07C338.28 684.77 336.06 682.3 335.16 682.3H334.46C333.85 682.3 331.23 686.95 329.3 687.3C328.478 687.36 327.652 687.36 326.83 687.3C322.74 687.3 319.83 682.3 318.75 682.3H318.21C317.08 682.3 312.04 686.64 310.65 686.72C309.91 686.72 309.17 686.72 308.43 686.72C306.95 686.72 303.81 682.3 303.43 682.3H302.83C302.14 682.3 299.55 688.24 298.66 688.37C297.384 688.52 296.096 688.52 294.82 688.37C293.82 688.29 289.6 682.3 288.74 682.3H288.11C287.25 682.3 283.44 687.14 282.62 687.17C281.16 687.24 282.28 687.36 280.82 687.17C278.45 686.87 273.47 682.3 272.48 682.3H267V100.4Z" fill="white"/>
<path d="M300.179 100.4H292.539V686.23C293.539 687.38 294.439 688.34 294.829 688.37C296.105 688.52 297.393 688.52 298.669 688.37C298.999 688.37 299.559 687.47 300.179 686.43V100.43V100.4Z" fill="#BE185D"/>
<path d="M314.14 100.461H308.59V686.731C309.26 686.731 309.94 686.731 310.59 686.731C311.24 686.731 312.66 685.731 314.11 684.731V100.461H314.14Z" fill="#BE185D"/>
<path d="M330.32 100.461H324.77V686.841C325.405 687.101 326.083 687.24 326.77 687.251C327.592 687.311 328.417 687.311 329.24 687.251C329.625 687.167 329.985 686.992 330.289 686.741V100.461H330.32Z" fill="#BE185D"/>
<path d="M345.999 100.461H340.449V685.191C341.546 685.316 342.653 685.316 343.749 685.191C344.526 685.083 345.284 684.864 345.999 684.541V100.541V100.461Z" fill="#BE185D"/>
<path d="M359.998 100.461H354.398V684.201C354.695 684.33 355.015 684.398 355.338 684.401C356.498 684.401 357.778 686.871 358.938 686.871C359.316 686.777 359.661 686.584 359.938 686.311V100.461H359.998Z" fill="#BE185D"/>
<path d="M284.63 100.461H279.07V686.511C279.615 686.83 280.21 687.053 280.83 687.171C282.29 687.361 281.17 687.241 282.63 687.171C282.96 687.171 283.74 686.401 284.63 685.481V100.481V100.461Z" fill="#BE185D"/>
<path opacity="0.4" d="M300.179 100.4H292.539V686.23C293.539 687.38 294.439 688.34 294.829 688.37C296.105 688.52 297.393 688.52 298.669 688.37C298.999 688.37 299.559 687.47 300.179 686.43V100.43V100.4Z" fill="white"/>
<path opacity="0.4" d="M314.14 100.461H308.59V686.731C309.26 686.731 309.94 686.731 310.59 686.731C311.24 686.731 312.66 685.731 314.11 684.731V100.461H314.14Z" fill="white"/>
<path opacity="0.4" d="M330.32 100.461H324.77V686.841C325.405 687.101 326.083 687.24 326.77 687.251C327.592 687.311 328.417 687.311 329.24 687.251C329.625 687.167 329.985 686.992 330.289 686.741V100.461H330.32Z" fill="white"/>
<path opacity="0.4" d="M345.999 100.461H340.449V685.191C341.546 685.316 342.653 685.316 343.749 685.191C344.526 685.083 345.284 684.864 345.999 684.541V100.541V100.461Z" fill="white"/>
<path opacity="0.4" d="M359.998 100.461H354.398V684.201C354.695 684.33 355.015 684.398 355.338 684.401C356.498 684.401 357.778 686.871 358.938 686.871C359.316 686.777 359.661 686.584 359.938 686.311V100.461H359.998Z" fill="white"/>
<path opacity="0.4" d="M284.63 100.461H279.07V686.511C279.615 686.83 280.21 687.053 280.83 687.171C282.29 687.361 281.17 687.241 282.63 687.171C282.96 687.171 283.74 686.401 284.63 685.481V100.481V100.461Z" fill="white"/>
<path d="M898 99.89H249.391V90.25H890.71L898 99.89Z" fill="#868A91"/>
<path opacity="0.2" d="M880 90.2402C880 90.2402 877.68 95.3003 880 99.8903H884V90.2603L880 90.2402Z" fill="black"/>
<path opacity="0.2" d="M260.941 90.2402C260.941 90.2402 263.261 95.3003 260.941 99.8903H256.941V90.2603L260.941 90.2402Z" fill="black"/>
<path d="M892.51 106.88C899.03 106.88 904.32 101.592 904.32 95.0698C904.32 88.5468 899.03 83.2598 892.51 83.2598C885.99 83.2598 880.7 88.5468 880.7 95.0698C880.7 101.592 885.99 106.88 892.51 106.88Z" fill="#868A91"/>
<path d="M248.119 106.88C254.641 106.88 259.929 101.592 259.929 95.0698C259.929 88.5468 254.641 83.2598 248.119 83.2598C241.596 83.2598 236.309 88.5468 236.309 95.0698C236.309 101.592 241.596 106.88 248.119 106.88Z" fill="#868A91"/>
<path d="M1149.64 823.46H62.479C62.132 823.43 61.809 823.27 61.573 823.01C61.338 822.76 61.207 822.42 61.207 822.07C61.207 821.73 61.338 821.39 61.573 821.13C61.809 820.88 62.132 820.72 62.479 820.69H1149.64C1149.99 820.72 1150.31 820.88 1150.55 821.13C1150.78 821.39 1150.91 821.73 1150.91 822.07C1150.91 822.42 1150.78 822.76 1150.55 823.01C1150.31 823.27 1149.99 823.43 1149.64 823.46Z" fill="#B2B6BB"/>
<path d="M861.7 373.121L850.41 366.121C844.53 362.501 835.8 365.921 830.99 373.711L788.421 443.001C783.621 450.791 784.491 460.131 790.42 463.751L789.03 462.901L728.221 559.901C726.757 559.484 725.243 559.268 723.721 559.261H524.771C520.359 559.274 516.132 561.033 513.012 564.152C509.893 567.272 508.134 571.499 508.121 575.911V593.601C508.134 598.013 509.893 602.24 513.012 605.36C516.132 608.479 520.359 610.238 524.771 610.251H734.921L823.18 467.251C823.7 466.638 824.17 465.99 824.6 465.311L867.11 396.001C869.41 392.244 870.13 387.733 869.11 383.448C868.1 379.163 865.44 375.451 861.7 373.121Z" fill="#BE185D"/>
<path opacity="0.2" d="M861.67 373.1L853.32 386.69L726.001 593.6H508.121C508.134 598.011 509.893 602.239 513.012 605.358C516.132 608.478 520.359 610.236 524.771 610.25H734.921L823.18 467.25C823.7 466.637 824.17 465.989 824.6 465.31L867.11 396C869.41 392.238 870.13 387.718 869.11 383.428C868.09 379.138 865.42 375.425 861.67 373.1Z" fill="black"/>
<path d="M549.681 620.251L520.281 517.741L526.161 514.381L556.401 620.251H549.681Z" fill="#B2B6BB"/>
<path d="M534.881 537.639H524.431L517.461 514.779H527.911L534.881 537.639Z" fill="#B2B6BB"/>
<path d="M491.77 491.369C492.22 511.749 499.29 515.519 507.52 515.519H536.52C540.718 515.519 544.744 513.851 547.713 510.883C550.682 507.914 552.349 503.888 552.349 499.689V491.369H491.77Z" fill="#B2B6BB"/>
<path opacity="0.2" d="M494.531 491.369C494.531 491.369 492.611 512.099 505.791 512.099C521.471 512.099 520.051 491.369 520.051 491.369H494.531Z" fill="black"/>
<path opacity="0.2" d="M517.691 515.52H528.141L528.811 517.729H518.361L517.691 515.52Z" fill="black"/>
<path d="M746.971 609.941L734.941 610.071L868.03 394.811L877 400.371L746.971 609.941Z" fill="#B2B6BB"/>
<path opacity="0.2" d="M746.971 609.94L734.941 610.07L739.461 602.76H751.431L746.971 609.94Z" fill="black"/>
<path d="M768 609.369H525V640.369H768V609.369Z" fill="#B2B6BB"/>
<path d="M749.5 657.369H543.5L533.5 640.369H759.5L749.5 657.369Z" fill="#B2B6BB"/>
<path opacity="0.2" d="M533.5 640.369H759.5L756.55 645.399H536.45L533.5 640.369Z" fill="black"/>
<path d="M671.5 800.369H621.5L616.5 657.369H676.5L671.5 800.369Z" fill="#B2B6BB"/>
<path opacity="0.2" d="M676.5 657.369H656.62H616.5V666.249H661.62L659.62 795.789H621.19L621.5 800.369H671.5L676.5 657.369Z" fill="black"/>
<path d="M713 799.369H580V820.37H713V799.369Z" fill="#B2B6BB"/>
<path d="M1079.58 549.369H853.35V558.739H1079.58V549.369Z" fill="#B2B6BB"/>
<path d="M1073.86 558.74H857.68V801.89H1073.86V558.74Z" fill="#B2B6BB"/>
<path opacity="0.2" d="M1009.1 601.9H866.78V570H1009.1V601.9ZM868.22 600.46H1007.67V571.46H868.22V600.46Z" fill="black"/>
<path opacity="0.2" d="M1009.1 640.479H866.78V608.609H1009.1V640.479ZM868.22 638.999H1007.67V609.999H868.22V638.999Z" fill="black"/>
<path opacity="0.2" d="M1008.09 677.999H865.76V646.109H1008.09V677.999ZM867.2 676.559H1006.65V647.559H867.2V676.559Z" fill="black"/>
<path opacity="0.2" d="M1008.09 716.559H865.76V684.689H1008.09V716.559ZM867.2 715.119H1006.65V686.119H867.2V715.119Z" fill="black"/>
<path opacity="0.2" d="M1008.09 756H865.76V724.09H1008.09V756ZM867.2 754.56H1006.65V725.56H867.2V754.56Z" fill="black"/>
<path opacity="0.2" d="M1008.09 794.54H865.76V762.67H1008.09V794.54ZM867.2 793.1H1006.65V764.1H867.2V793.1Z" fill="black"/>
<path d="M881.2 801.971H864.19V820.58H881.2V801.971Z" fill="#61656D"/>
<path opacity="0.15" d="M1016.6 558.92H857.24V561.78H1016.6V558.92Z" fill="black"/>
<path opacity="0.15" d="M1073.86 558.92H1016.6V801.3H1073.86V558.92Z" fill="black"/>
<path opacity="0.15" d="M881.09 802.25H874.41V820.38H881.09V802.25Z" fill="black"/>
<path d="M1010.98 801.971H993.97V820.58H1010.98V801.971Z" fill="#61656D"/>
<path opacity="0.15" d="M1010.87 802.25H1004.19V820.38H1010.87V802.25Z" fill="black"/>
<path d="M947.05 801.971H930.04V820.58H947.05V801.971Z" fill="#61656D"/>
<path opacity="0.15" d="M946.94 802.25H940.26V820.38H946.94V802.25Z" fill="black"/>
<path d="M1068.24 801.971H1051.23V820.58H1068.24V801.971Z" fill="#61656D"/>
<path opacity="0.15" d="M1068.13 802.25H1061.45V820.38H1068.13V802.25Z" fill="black"/>
<path d="M951.24 776.221H922.61V780.991H951.24V776.221Z" fill="#61656D"/>
<path d="M951.24 737.641H922.61V742.411H951.24V737.641Z" fill="#61656D"/>
<path d="M951.24 698.24H922.61V703.01H951.24V698.24Z" fill="#61656D"/>
<path d="M951.24 659.66H922.61V664.43H951.24V659.66Z" fill="#61656D"/>
<path d="M952.26 622.16H923.63V626.93H952.26V622.16Z" fill="#61656D"/>
<path d="M952.26 583.58H923.63V588.35H952.26V583.58Z" fill="#61656D"/>
<path opacity="0.15" d="M1080 549H1022V559H1080V549Z" fill="black"/>
<path d="M436.49 344.431C436.49 344.431 422.39 340.771 414.18 340.821L412.66 345.231L426.35 347.071L436.49 344.431Z" fill="#956363"/>
<g opacity="0.2">
<path opacity="0.2" d="M436.49 344.431C436.49 344.431 422.39 340.771 414.18 340.821L412.66 345.231L426.35 347.071L436.49 344.431Z" fill="black"/>
</g>
<path d="M426.18 350.86L436.06 349.46L442.93 338.46C443.101 338.193 443.168 337.873 443.12 337.56C443.096 337.385 443.038 337.215 442.949 337.062C442.86 336.909 442.741 336.775 442.6 336.668C442.458 336.561 442.297 336.483 442.126 336.439C441.954 336.395 441.775 336.385 441.6 336.41C441.01 336.493 440.476 336.802 440.11 337.27L434.39 344.97L429.86 345.79L426.18 350.86Z" fill="#956363"/>
<path d="M446.999 342.43C447.024 342.219 447.007 342.005 446.948 341.801C446.889 341.596 446.791 341.406 446.657 341.24C446.524 341.074 446.36 340.937 446.173 340.835C445.986 340.734 445.781 340.671 445.569 340.65C445.046 340.601 444.521 340.709 444.059 340.96L439.919 343.24L436.039 349.46L446.209 343.64C446.428 343.516 446.614 343.342 446.752 343.131C446.889 342.921 446.974 342.68 446.999 342.43Z" fill="#956363"/>
<path opacity="0.2" d="M437.26 341.09L434.71 346.46L426.18 350.86L429.86 345.77L434.39 344.95L437.26 341.09Z" fill="black"/>
<path d="M436.059 349.461L447.859 347.791C448.064 347.761 448.258 347.68 448.423 347.554C448.587 347.427 448.717 347.261 448.799 347.071C448.908 346.803 448.916 346.504 448.822 346.23C448.728 345.957 448.539 345.726 448.289 345.581H448.219C447.976 345.442 447.697 345.379 447.419 345.401L442.349 345.901L436.059 349.461Z" fill="#956363"/>
<path opacity="0.2" d="M441.659 342.289L436.059 349.459L439.929 343.239L441.659 342.289Z" fill="black"/>
<path opacity="0.2" d="M444.26 345.59L442.349 345.86L436.52 349.4L437.49 349.26L444.26 345.59Z" fill="black"/>
<path d="M408.701 356.399L400.301 345.889L407.851 337.989C408.522 336.962 409.443 336.122 410.527 335.547C411.612 334.971 412.824 334.68 414.051 334.699C417.432 334.78 420.811 334.444 424.111 333.699C424.346 333.644 424.592 333.655 424.821 333.731C425.051 333.807 425.255 333.945 425.411 334.129C425.568 334.286 425.688 334.476 425.763 334.686C425.838 334.895 425.865 335.118 425.843 335.339C425.821 335.56 425.75 335.773 425.636 335.964C425.521 336.154 425.366 336.316 425.181 336.439C424.014 337.481 422.593 338.195 421.061 338.509L416.861 339.509C416.321 339.619 415.981 340.509 415.981 341.009C415.982 341.269 416.068 341.52 416.228 341.725C416.387 341.929 416.61 342.075 416.861 342.139L423.161 344.459C423.547 344.556 423.948 344.574 424.341 344.514C424.734 344.454 425.111 344.317 425.451 344.109L429.001 341.999L432.581 334.389C432.672 334.193 432.812 334.023 432.987 333.895C433.162 333.768 433.366 333.687 433.581 333.659H433.691C433.859 333.635 434.03 333.645 434.195 333.687C434.359 333.73 434.514 333.804 434.649 333.906C434.785 334.008 434.899 334.136 434.985 334.283C435.071 334.429 435.128 334.591 435.151 334.759C435.196 334.937 435.196 335.122 435.151 335.299L432.361 344.719L428.411 350.579L415.751 353.299L408.701 356.399Z" fill="#956363"/>
<path d="M296.878 253.141C297.988 255.911 298.998 258.771 300.108 261.731C303.428 271.321 294.108 272.981 294.108 272.981C294.108 272.981 297.338 279.541 292.818 284.981C291.595 286.538 289.901 287.658 287.989 288.174C286.076 288.689 284.049 288.573 282.208 287.841C282.208 287.841 280.208 290.841 274.458 291.441C266.248 292.271 263.018 289.131 263.018 289.131L254.338 287.931C253.228 288.581 252.498 292.931 243.448 294.301C235.148 295.591 230.718 290.791 230.718 290.791C228.718 295.221 218.348 294.851 216.878 288.031C215.488 281.661 218.348 278.891 218.718 278.611C213.548 282.611 204.138 272.711 213.278 262.561C216.968 258.401 218.998 256.471 220.378 254.441C216.138 255.641 211.428 250.841 213.188 246.321C215.398 240.591 220.108 242.621 224.188 234.411C229.628 223.411 233.968 219.551 234.238 219.411C241.528 211.941 252.698 208.151 264.968 208.411C275.488 208.591 281.678 212.651 285.458 216.901C288.447 220.416 290.24 224.79 290.578 229.391L292.788 236.901C294.528 240.011 296.888 243.361 299.388 244.581C300.384 245.024 301.186 245.813 301.644 246.802C302.102 247.791 302.185 248.913 301.879 249.959C301.572 251.005 300.896 251.904 299.976 252.489C299.057 253.075 297.956 253.306 296.878 253.141Z" fill="black"/>
<path d="M233.34 771C234.225 773.813 234.564 776.77 234.34 779.71L234.43 804.24C234.321 808.513 233.116 812.69 230.93 816.36L230.46 817.21C229.844 818.27 228.962 819.15 227.9 819.77C226.836 820.39 225.629 820.71 224.4 820.71H217.4C215.834 820.72 214.312 820.2 213.075 819.24C211.839 818.28 210.96 816.93 210.58 815.41C209.648 811.788 209.522 808.006 210.21 804.33L216.21 778.01C216.598 775.552 217.332 773.162 218.39 770.91H233.39L233.34 771Z" fill="#BE185D"/>
<path d="M326.6 713.291L331 760.161C331.28 765.651 332.7 769.061 334.31 771.331L351.31 805.991L346.58 812.52L328 803.241L311.53 773.411C311.53 768.301 311.05 765.271 310.11 758.411L302 707.891L326.6 713.291Z" fill="#956363"/>
<path d="M213.462 302.81L242.242 293L289.112 293.47C304.202 300.12 322.822 300.8 322.342 322.16L317.582 330.3L322.122 345.73C326.802 361.84 314.812 364.61 311.242 377.93C305.722 394.57 305.472 425.7 306.532 445.15L218.002 444.93C213.932 444.93 212.132 440.58 214.122 436.98C229.742 418.06 216.522 340.12 215.442 342.49L196.892 321.94C196.322 311.24 203.322 305.18 213.462 302.81Z" fill="#BE185D"/>
<path opacity="0.15" d="M331.432 775.881C329.542 773.131 327.172 766.501 326.602 763.471L320.922 746.051C320.829 745.456 320.549 744.906 320.122 744.481C319.697 744.06 319.152 743.78 318.562 743.681L307.292 742.171L307.102 739.711H329.102L331.002 760.161C331.382 763.661 332.232 768.301 334.312 771.331L351.322 806.001L348.382 810.821L331.432 775.881Z" fill="black"/>
<path d="M361.068 812L351.308 806.13C347.846 806.692 344.297 806.342 341.01 805.114C337.724 803.887 334.815 801.825 332.568 799.13L311.448 773.57C307.677 781.728 306.33 790.798 307.568 799.7L310.568 820.91H313.028L313.698 799.13C313.697 798.77 313.813 798.419 314.028 798.13C314.234 797.851 314.52 797.641 314.848 797.53C315.176 797.44 315.521 797.44 315.848 797.53C316.181 797.635 316.479 797.828 316.708 798.09L329.578 813.81C331.402 816.03 333.692 817.81 336.285 819.04C338.878 820.26 341.71 820.9 344.578 820.91H364.648C364.997 820.91 365.341 820.83 365.648 820.66C365.972 820.49 366.248 820.24 366.448 819.94C366.639 819.64 366.756 819.3 366.788 818.94C366.808 818.6 366.742 818.25 366.598 817.94C365.612 815.31 363.624 813.17 361.068 812Z" fill="#BE185D"/>
<path d="M234.38 759.88C233.322 768.705 232.877 777.593 233.05 786.479L233.24 797.09C233.155 799.32 232.212 801.431 230.607 802.984C229.003 804.536 226.862 805.408 224.63 805.419H223.11C221.869 805.421 220.643 805.154 219.515 804.636C218.388 804.118 217.386 803.362 216.58 802.419C215.768 801.486 215.17 800.387 214.824 799.199C214.479 798.011 214.395 796.763 214.58 795.539L217.05 783C218.301 776.61 218.748 770.09 218.38 763.59L216 720.77L238.06 721.15L234.38 759.88Z" fill="#956363"/>
<path d="M316.191 444.34L319.311 482.11L322.151 513.74C323.671 530.59 324.611 547.44 325.091 564.39L332.471 769.66H308.331L267.001 498.87C266.871 497.991 266.422 497.19 265.741 496.62C265.061 496.049 264.199 495.741 263.311 495.75C262.374 495.73 261.466 496.074 260.778 496.71C260.09 497.346 259.675 498.224 259.621 499.16L237.791 769.57L215.921 769.38L205.001 574.24C202.711 532.632 205.861 490.903 214.371 450.11L215.601 444.34H316.191Z" fill="#21252B"/>
<path opacity="0.6" d="M242.12 300.531L233.27 295.411L240.53 293.341L282.35 293.141L293.15 294.421L284.74 300.721C279.39 303.921 269.19 306.641 262.95 306.611C256.71 306.581 247.44 303.791 242.12 300.531Z" fill="black"/>
<path d="M354.48 363.35L405.55 342.74L414 353.25L363 384.92" fill="#956363"/>
<path opacity="0.15" d="M236.178 739.711C236.178 739.711 233.528 767.171 233.338 770.861V771.001C233.048 776.211 232.858 781.321 232.958 786.531L233.148 797.141C233.066 799.308 232.174 801.366 230.649 802.909C229.123 804.451 227.075 805.365 224.908 805.471C228.978 802.341 228.598 797.231 228.698 793.471L229.358 746.981C229.363 746.252 229.112 745.544 228.648 744.981C228.179 744.41 227.525 744.021 226.798 743.881L216.998 742.001L216.898 739.821L236.178 739.711Z" fill="black"/>
<path opacity="0.3" d="M263.071 495.65C262.127 495.677 261.222 496.03 260.511 496.65C260.164 496.961 259.884 497.339 259.69 497.763C259.495 498.186 259.39 498.645 259.381 499.11L237.791 769.57H229.551L245.651 514.57C247.351 497.76 252.471 495.65 263.071 495.65Z" fill="black"/>
<path opacity="0.3" d="M316.939 453.619L319.309 482.109L321.009 501.809C323.189 526.622 324.609 551.492 325.269 576.419L332.379 769.659H321.579L307.659 500.579L305.199 453.899H316.089L316.559 453.799L316.939 453.619Z" fill="black"/>
<path d="M406.479 359.669L349.889 392.929C347.73 394.281 345.286 395.112 342.75 395.356C340.215 395.601 337.657 395.253 335.279 394.339H335.179C331.803 392.973 328.891 390.664 326.789 387.689L304.539 356.629L318.359 308.119L344.089 366.209L398.539 343.819L406.479 359.669Z" fill="white"/>
<path opacity="0.15" d="M344.088 366.169L341.588 367.169C341.517 367.197 341.439 367.204 341.364 367.189C341.289 367.175 341.219 367.139 341.163 367.087C341.106 367.035 341.066 366.969 341.046 366.895C341.026 366.821 341.026 366.743 341.048 366.669L342.438 362.449L344.088 366.169Z" fill="black"/>
<path d="M201.532 533.29H245.532L252.612 426.81L256.002 358.6L242.242 291L236.082 294.24L213.462 298.86C203.322 301.22 196.322 311.26 196.892 321.96L215.442 342.51C216.442 340.27 223.002 397.69 214.682 431.51C213.042 438.18 211.512 444.87 210.342 451.63C205.699 478.639 202.757 505.912 201.532 533.29Z" fill="white"/>
<path d="M325.07 533.289H287.5L282.5 442.049L280.5 357.389L289.11 293.439C305.82 297.369 322.82 300.769 322.34 322.129L317.58 330.269L322.12 345.699C326.8 361.809 316.79 364.579 313.23 377.899C307.71 394.539 315.4 425.669 316.46 445.119C316.46 445.119 323.1 501.339 325.07 533.289Z" fill="white"/>
<path d="M274 414.539L284.6 412.449L286.97 414.819L284.22 418.129L274 414.539Z" fill="#956363"/>
<path opacity="0.2" d="M276.901 430.731L262.131 427.601L215.821 424.221L215.121 429.171C215.121 429.171 236.671 431.171 249.821 431.911C265.471 432.171 266.391 431.911 275.401 433.161L276.991 430.731H276.901Z" fill="black"/>
<path opacity="0.15" d="M406.478 359.671L349.888 393.171H349.988C330.988 401.571 327.698 385.761 316.138 371.051C316.428 370.671 316.548 370.261 316.838 369.881C330.108 356.191 316.328 338.251 313.988 322.511C315.198 318.341 318.048 333.611 318.358 333.291C318.838 339.081 328.468 347.431 327.618 362.081C327.455 363.998 327.1 365.894 326.558 367.741C324.798 374.391 329.178 381.741 334.858 386.051C337.105 387.732 339.8 388.709 342.602 388.856C345.404 389.004 348.187 388.317 350.598 386.881C353.318 385.271 400.218 357.231 404.498 354.711L406.478 359.671Z" fill="black"/>
<path opacity="0.25" d="M274 414.539L284.6 412.449L286.97 414.819L284.22 418.129L274 414.539Z" fill="black"/>
<path opacity="0.15" d="M301.6 429.879L287.5 424.289" stroke="black" stroke-width="1.12" stroke-miterlimit="10" stroke-linecap="round"/>
<path opacity="0.15" d="M285 428.84L298.35 432.43" stroke="black" stroke-width="1.12" stroke-miterlimit="10" stroke-linecap="round"/>
<path opacity="0.15" d="M299.332 434C299.301 434.178 299.233 434.349 299.132 434.5C299.031 434.647 298.902 434.773 298.752 434.87C298.603 434.966 298.436 435.031 298.262 435.06C298.084 435.1 297.899 435.1 297.722 435.06L262.312 427.58L259.852 427.39L261.082 424.27L299.332 434Z" fill="black"/>
<path d="M261.842 449.571L294.412 393.331C294.774 392.718 295.335 392.248 296.002 392.001C296.676 391.771 297.408 391.771 298.082 392.001L344.002 407.531C344.411 407.66 344.787 407.879 345.102 408.171C345.419 408.461 345.665 408.82 345.822 409.221C345.977 409.623 346.038 410.055 346.002 410.485C345.966 410.914 345.832 411.33 345.612 411.701L315.002 465.001C314.654 465.587 314.123 466.044 313.491 466.301C312.859 466.557 312.16 466.599 311.502 466.421L263.692 453.831C263.266 453.71 262.873 453.495 262.542 453.201C262.213 452.902 261.95 452.538 261.772 452.131C261.601 451.723 261.523 451.282 261.542 450.841C261.561 450.396 261.681 449.962 261.892 449.571H261.842Z" fill="#61656D"/>
<path opacity="0.3" d="M261.842 449.571L294.412 393.331C294.774 392.718 295.335 392.248 296.002 392.001C296.676 391.771 297.408 391.771 298.082 392.001L344.002 407.531C344.411 407.66 344.787 407.879 345.102 408.171C345.419 408.461 345.665 408.82 345.822 409.221C345.977 409.623 346.038 410.055 346.002 410.485C345.966 410.914 345.832 411.33 345.612 411.701L315.002 465.001C314.654 465.587 314.123 466.044 313.491 466.301C312.859 466.557 312.16 466.599 311.502 466.421L263.692 453.831C263.266 453.71 262.873 453.495 262.542 453.201C262.213 452.902 261.95 452.538 261.772 452.131C261.601 451.723 261.523 451.282 261.542 450.841C261.561 450.396 261.681 449.962 261.892 449.571H261.842Z" fill="black"/>
<path d="M336.11 401.229L312.6 393.299C312.497 393.258 312.383 393.252 312.276 393.283C312.169 393.314 312.076 393.38 312.011 393.469L309.821 396.819C309.788 396.883 309.771 396.953 309.77 397.024C309.768 397.095 309.783 397.165 309.813 397.23C309.843 397.294 309.887 397.351 309.942 397.396C309.997 397.441 310.061 397.473 310.131 397.489L333.651 405.429C333.754 405.466 333.867 405.469 333.973 405.439C334.078 405.408 334.172 405.346 334.24 405.259L336.42 401.899C336.455 401.836 336.474 401.766 336.476 401.695C336.478 401.623 336.464 401.552 336.434 401.487C336.404 401.421 336.359 401.364 336.303 401.32C336.247 401.275 336.181 401.244 336.11 401.229Z" fill="#868A91"/>
<path d="M263.451 450L296.001 393.8C296.378 393.197 296.947 392.739 297.617 392.499C298.286 392.26 299.017 392.253 299.691 392.48L345.631 408C346.042 408.122 346.418 408.337 346.731 408.63C347.046 408.926 347.292 409.288 347.451 409.69C347.606 410.091 347.667 410.522 347.631 410.95C347.593 411.378 347.46 411.791 347.241 412.16L316.561 465.47C316.212 466.055 315.682 466.512 315.051 466.77C314.414 467.021 313.714 467.063 313.051 466.89L265.241 454.3C264.812 454.179 264.416 453.964 264.081 453.67C263.749 453.374 263.487 453.008 263.314 452.598C263.141 452.188 263.062 451.745 263.081 451.3C263.099 450.844 263.226 450.398 263.451 450Z" fill="#61656D"/>
<path d="M262.68 414.061L266.95 414.631C267.259 414.715 267.581 414.746 267.9 414.721L283.61 414.441C285.256 414.451 286.889 414.739 288.44 415.291L306.53 421.921C306.891 422.069 307.189 422.339 307.372 422.685C307.555 423.03 307.611 423.428 307.53 423.811C307.409 424.222 307.133 424.571 306.76 424.784C306.387 424.996 305.946 425.056 305.53 424.951L288.2 420.411L304.68 429.411C304.878 429.512 305.055 429.651 305.2 429.821C305.343 429.991 305.449 430.189 305.511 430.403C305.573 430.616 305.589 430.84 305.56 431.061C305.532 431.281 305.457 431.492 305.34 431.681C305.139 432.059 304.809 432.353 304.41 432.511C304.005 432.651 303.565 432.651 303.16 432.511L286.4 425.881L301.55 431.881C301.749 431.957 301.932 432.068 302.09 432.211C302.247 432.357 302.373 432.534 302.46 432.731C302.55 432.922 302.601 433.129 302.61 433.341C302.614 433.556 302.577 433.77 302.5 433.971C302.358 434.385 302.065 434.731 301.68 434.941C301.295 435.15 300.845 435.207 300.42 435.101L285 430.921L298.26 434.511C298.429 434.553 298.589 434.627 298.73 434.731C298.87 434.838 298.988 434.97 299.08 435.121C299.164 435.272 299.219 435.438 299.24 435.611C299.275 435.779 299.275 435.952 299.24 436.121C299.205 436.298 299.137 436.468 299.04 436.621C298.939 436.768 298.81 436.894 298.66 436.991C298.509 437.092 298.339 437.16 298.16 437.191C297.985 437.226 297.805 437.226 297.63 437.191L262.22 429.711L259.75 429.531L262.68 414.061Z" fill="#956363"/>
<g opacity="0.15">
<path opacity="0.15" d="M301.599 432.42C301.533 432.433 301.465 432.433 301.399 432.42L287.289 426.84C287.192 426.765 287.122 426.661 287.09 426.542C287.058 426.423 287.066 426.297 287.112 426.183C287.159 426.07 287.242 425.975 287.348 425.912C287.454 425.85 287.577 425.825 287.699 425.84L301.809 431.42C301.878 431.448 301.94 431.488 301.993 431.54C302.045 431.592 302.087 431.653 302.116 431.721C302.145 431.789 302.16 431.862 302.16 431.935C302.161 432.009 302.147 432.082 302.119 432.15C302.068 432.24 301.991 432.314 301.899 432.362C301.807 432.41 301.703 432.43 301.599 432.42Z" fill="black"/>
</g>
<g opacity="0.15">
<path opacity="0.15" d="M298.38 435H298.24L284.89 431.4C284.747 431.363 284.625 431.27 284.55 431.143C284.475 431.015 284.454 430.864 284.49 430.72C284.53 430.577 284.624 430.454 284.753 430.38C284.882 430.305 285.036 430.284 285.18 430.32L298.53 433.92C298.661 433.956 298.774 434.039 298.849 434.152C298.924 434.265 298.955 434.402 298.937 434.536C298.918 434.67 298.852 434.794 298.749 434.883C298.647 434.972 298.516 435.021 298.38 435.02V435Z" fill="black"/>
</g>
<path opacity="0.15" d="M260.321 426.52L263.091 426.789L299.331 436C299.3 436.175 299.232 436.342 299.131 436.49C299.03 436.64 298.901 436.769 298.751 436.87C298.6 436.962 298.434 437.026 298.261 437.06C298.083 437.095 297.899 437.095 297.721 437.06L262.311 429.58L259.801 429.4" fill="black"/>
<path d="M291.539 292.91L280.769 290.85C279.713 290.523 278.776 289.895 278.074 289.042C277.372 288.189 276.936 287.148 276.819 286.05L271.359 246.93L246.749 254.22L247.469 285.71C247.511 286.919 247.199 288.115 246.57 289.149C245.941 290.184 245.023 291.011 243.929 291.53L235.879 294C235.879 294 238.109 295.63 241.559 297.64C247.799 301.321 254.864 303.374 262.105 303.612C269.346 303.85 276.531 302.264 282.999 299C286.142 297.421 289.023 295.367 291.539 292.91Z" fill="#956363"/>
<path opacity="0.3" d="M275.361 276.629C272.591 278.239 270.021 279.479 266.791 279.459C266.091 279.451 265.393 279.398 264.701 279.299L263.901 279.199H263.741C263.351 279.059 262.941 279.109 262.471 278.959C262.311 278.959 262.161 278.829 262.001 278.809C259.855 278.264 257.841 277.291 256.081 275.949C256.029 275.9 255.966 275.863 255.898 275.841C255.83 275.819 255.758 275.813 255.687 275.823C255.616 275.832 255.548 275.858 255.488 275.897C255.428 275.936 255.378 275.988 255.341 276.049C255.251 276.175 255.208 276.328 255.221 276.482C255.234 276.636 255.301 276.781 255.411 276.889C257.702 278.589 260.337 279.766 263.131 280.339C265.523 282.698 268.656 284.16 272.001 284.479C273.496 284.538 274.993 284.447 276.471 284.209L275.361 276.629Z" fill="black"/>
<path d="M269.841 279.049L268.391 279.229C265.828 279.457 263.245 279.177 260.791 278.404C258.337 277.632 256.059 276.383 254.088 274.728C252.118 273.073 250.493 271.046 249.308 268.762C248.123 266.478 247.4 263.983 247.181 261.419L244.561 233.739C244.468 232.88 244.547 232.011 244.793 231.183C245.039 230.355 245.446 229.583 245.992 228.913C246.538 228.244 247.212 227.689 247.974 227.282C248.736 226.874 249.571 226.622 250.431 226.539L275.791 223.999C278.04 223.808 280.272 224.517 281.999 225.97C283.725 227.423 284.805 229.501 285.001 231.749L287.441 257.489C288.251 268.249 280.491 277.999 269.841 279.049Z" fill="#956363"/>
<path d="M266.608 254.471C267.031 254.473 267.444 254.349 267.796 254.116C268.147 253.883 268.422 253.55 268.584 253.161C268.747 252.771 268.79 252.342 268.708 251.928C268.626 251.514 268.423 251.133 268.125 250.835C267.826 250.536 267.446 250.333 267.032 250.251C266.617 250.17 266.188 250.213 265.799 250.375C265.409 250.537 265.077 250.812 264.843 251.164C264.61 251.516 264.487 251.929 264.488 252.351C264.484 252.63 264.537 252.908 264.642 253.167C264.747 253.426 264.903 253.661 265.1 253.859C265.298 254.057 265.533 254.213 265.792 254.318C266.051 254.423 266.329 254.475 266.608 254.471Z" fill="black"/>
<path d="M267.538 253.539C267.65 253.523 267.752 253.467 267.826 253.382C267.899 253.296 267.94 253.187 267.94 253.074C267.94 252.962 267.899 252.853 267.826 252.767C267.752 252.682 267.65 252.626 267.538 252.609C267.427 252.626 267.325 252.682 267.251 252.767C267.177 252.853 267.137 252.962 267.137 253.074C267.137 253.187 267.177 253.296 267.251 253.382C267.325 253.467 267.427 253.523 267.538 253.539Z" fill="white"/>
<path d="M283.322 253.641C283.744 253.641 284.156 253.516 284.506 253.281C284.857 253.047 285.13 252.713 285.291 252.324C285.452 251.934 285.493 251.505 285.41 251.092C285.327 250.678 285.123 250.299 284.824 250.001C284.525 249.704 284.145 249.502 283.731 249.421C283.317 249.34 282.889 249.383 282.5 249.546C282.111 249.709 281.779 249.983 281.546 250.335C281.313 250.686 281.19 251.099 281.192 251.521C281.186 251.802 281.238 252.081 281.343 252.341C281.448 252.601 281.605 252.838 281.804 253.036C282.003 253.234 282.24 253.39 282.501 253.494C282.762 253.598 283.041 253.648 283.322 253.641Z" fill="black"/>
<path d="M284.149 252.521C284.271 252.521 284.388 252.472 284.474 252.386C284.56 252.3 284.609 252.183 284.609 252.061C284.609 251.939 284.56 251.822 284.474 251.735C284.388 251.649 284.271 251.601 284.149 251.601C284.087 251.596 284.025 251.605 283.967 251.627C283.91 251.648 283.857 251.682 283.813 251.726C283.77 251.769 283.736 251.822 283.715 251.88C283.693 251.937 283.684 251.999 283.689 252.061C283.779 252.341 283.999 252.521 284.149 252.521Z" fill="white"/>
<path opacity="0.15" d="M220.371 348.299L214.531 337.539L214.121 341.019L215.441 342.489C216.441 340.249 223.001 397.669 214.681 431.489C213.041 438.179 211.501 444.889 210.331 451.679C205.694 478.675 202.755 505.935 201.531 533.299H210.321C210.631 507.299 214.141 475.299 216.321 457.829C217.111 451.399 218.081 444.999 219.321 438.639C224.451 412.181 225.841 385.134 223.451 358.289C223.097 354.788 222.05 351.392 220.371 348.299Z" fill="black"/>
<path opacity="0.3" d="M275 260.869L272.14 261.329C271.985 261.339 271.829 261.3 271.697 261.218C271.564 261.135 271.461 261.014 271.4 260.869C271.389 260.713 271.427 260.557 271.51 260.424C271.593 260.291 271.715 260.188 271.86 260.129L274.73 259.669C275.07 259.613 275.373 259.427 275.579 259.151C275.784 258.875 275.874 258.53 275.83 258.189C275.765 257.849 275.582 257.542 275.313 257.323C275.044 257.103 274.707 256.985 274.36 256.989C274.209 257.007 274.056 256.969 273.932 256.881C273.807 256.793 273.719 256.663 273.684 256.514C273.649 256.366 273.671 256.21 273.744 256.076C273.817 255.942 273.937 255.84 274.08 255.789C274.74 255.695 275.411 255.864 275.946 256.261C276.482 256.658 276.839 257.25 276.94 257.909C277.053 258.232 277.09 258.577 277.049 258.917C277.007 259.256 276.888 259.582 276.701 259.868C276.513 260.154 276.262 260.393 275.967 260.567C275.672 260.741 275.342 260.844 275 260.869Z" fill="black"/>
<path d="M260.5 430.18L180.9 422.54C172.75 422.06 166.98 413.26 170.01 405.11L197.55 316.42L206.37 315.83C213.56 327.76 214.82 335.83 217.44 351.15L218.11 356.64L201.73 398.56L265.47 413.3L260.5 430.18Z" fill="white"/>
<path d="M248.71 262.441C248.71 262.441 239.39 264.441 236.16 255.511C232.93 246.581 244.16 243.151 247.05 252.281L249.82 262.341L248.71 262.441Z" fill="#956363"/>
<path opacity="0.3" d="M238.38 250.161C238.72 249.797 239.135 249.511 239.596 249.321C240.056 249.131 240.552 249.043 241.05 249.061C241.55 249.099 242.035 249.251 242.466 249.506C242.898 249.761 243.265 250.111 243.54 250.531C244.357 251.546 244.898 252.755 245.11 254.041L245.3 255.041C245.39 255.781 244.19 256.151 244.1 255.321L243.82 254.321C243.664 253.283 243.252 252.3 242.62 251.461C242.212 250.912 241.625 250.523 240.96 250.361C240.41 250.261 239.85 250.631 239.12 251.191C238.981 251.279 238.82 251.326 238.655 251.326C238.49 251.326 238.329 251.279 238.19 251.191C238.1 250.721 238.1 250.351 238.38 250.161Z" fill="black"/>
<path d="M245.758 261.241C246.124 261.222 246.475 261.096 246.769 260.878C247.063 260.66 247.285 260.36 247.408 260.016C247.531 259.672 247.55 259.299 247.461 258.944C247.372 258.589 247.18 258.269 246.909 258.023C246.639 257.777 246.301 257.617 245.939 257.563C245.578 257.509 245.208 257.564 244.877 257.72C244.546 257.876 244.269 258.126 244.081 258.44C243.892 258.753 243.801 259.115 243.818 259.481C243.844 259.971 244.063 260.43 244.426 260.76C244.789 261.09 245.268 261.262 245.758 261.241Z" fill="#BE185D"/>
<path opacity="0.15" d="M246.591 261.049C246.323 261.093 246.049 261.082 245.786 261.017C245.523 260.952 245.276 260.833 245.06 260.67C244.844 260.506 244.664 260.3 244.53 260.065C244.396 259.829 244.311 259.569 244.281 259.299C244.292 258.922 244.356 258.549 244.471 258.189C244.248 258.402 244.074 258.661 243.962 258.947C243.849 259.234 243.801 259.542 243.821 259.849C243.849 260.095 243.928 260.332 244.052 260.546C244.176 260.76 244.342 260.946 244.541 261.093C244.74 261.24 244.966 261.345 245.207 261.401C245.448 261.457 245.697 261.463 245.941 261.419C246.13 261.419 246.318 261.377 246.49 261.298C246.663 261.218 246.816 261.103 246.941 260.959C246.871 260.869 246.681 260.999 246.591 261.049Z" fill="black"/>
<path d="M282.121 242.29C280.917 242.438 279.759 242.843 278.724 243.476C277.689 244.109 276.801 244.956 276.121 245.96C274.476 245.481 272.718 245.558 271.121 246.18C270.304 244.907 269.147 243.888 267.781 243.237C266.415 242.587 264.895 242.332 263.391 242.5C261.787 242.665 260.269 243.302 259.027 244.33C257.785 245.358 256.876 246.731 256.415 248.276C255.954 249.82 255.961 251.467 256.436 253.008C256.91 254.548 257.832 255.914 259.082 256.931C260.333 257.948 261.857 258.571 263.462 258.722C265.067 258.873 266.681 258.544 268.099 257.777C269.517 257.011 270.677 255.841 271.43 254.416C272.183 252.991 272.497 251.374 272.331 249.77C272.222 248.866 271.98 247.983 271.611 247.15C272.901 246.713 274.29 246.658 275.611 246.99C274.978 248.34 274.729 249.838 274.891 251.32C275.111 253.471 276.177 255.447 277.853 256.812C278.684 257.488 279.639 257.994 280.664 258.301C281.69 258.607 282.766 258.709 283.831 258.6C284.896 258.491 285.929 258.174 286.871 257.665C287.814 257.157 288.647 256.468 289.323 255.638C289.999 254.808 290.505 253.853 290.811 252.827C291.118 251.801 291.22 250.725 291.111 249.66C291.018 248.581 290.709 247.531 290.204 246.573C289.699 245.615 289.007 244.767 288.169 244.081C287.332 243.394 286.365 242.882 285.326 242.574C284.287 242.267 283.198 242.17 282.121 242.29ZM265.201 257.68C263.812 257.825 262.411 257.555 261.176 256.904C259.941 256.252 258.926 255.249 258.261 254.021C257.596 252.793 257.31 251.396 257.439 250.005C257.568 248.615 258.107 247.294 258.987 246.209C259.867 245.125 261.049 244.326 262.383 243.913C263.717 243.501 265.144 243.493 266.482 243.892C267.821 244.29 269.011 245.076 269.903 246.151C270.794 247.226 271.347 248.541 271.491 249.93C271.635 251.782 271.062 253.618 269.892 255.06C268.722 256.502 267.043 257.44 265.201 257.68ZM283.811 257.47C282.422 257.615 281.021 257.345 279.786 256.693C278.551 256.042 277.536 255.039 276.871 253.811C276.206 252.583 275.92 251.186 276.049 249.795C276.178 248.405 276.717 247.084 277.597 245.999C278.477 244.915 279.659 244.116 280.993 243.703C282.327 243.291 283.754 243.283 285.092 243.682C286.431 244.08 287.621 244.866 288.513 245.941C289.404 247.016 289.957 248.331 290.101 249.72C290.198 250.642 290.112 251.574 289.848 252.463C289.584 253.352 289.148 254.18 288.564 254.9C287.979 255.62 287.259 256.217 286.443 256.659C285.628 257.1 284.733 257.375 283.811 257.47Z" fill="white"/>
<path d="M255.538 226.26C255.538 226.26 254.538 243.7 246.408 250.72C246.408 250.72 245.668 246.1 239.408 246.72C239.408 246.72 238.858 245.61 237.938 240.44C237.018 235.27 240.338 213.59 264.328 214.97C264.328 214.97 271.988 213.41 282.598 222.54C293.208 231.67 286.938 241.64 286.938 241.64C286.938 241.64 269.108 239.27 255.538 226.26Z" fill="black"/>
<path opacity="0.15" d="M240.249 291.971L255.539 358.681L234.759 314.841L237.659 312.011H232.699L235.579 294.431L240.249 291.971Z" fill="black"/>
<path d="M242.241 290.98L255.781 357.45L236.741 314.84L240.641 311.01H234.691L237.571 293.44L242.241 290.98Z" fill="white"/>
<path opacity="0.15" d="M291.579 292.77L281.039 360.39L298.669 315.19L295.569 312.57L300.529 312.22L296.409 294.89L291.579 292.77Z" fill="black"/>
<path d="M289.521 291.92L280.711 359.17L296.691 315.32L292.531 311.79L298.481 311.37L294.361 294.04L289.521 291.92Z" fill="white"/>
<path opacity="0.15" d="M198.001 396.909L201.781 397.669L217.361 358.999L218.681 355.689C217.451 350.009 215.841 342.619 214.901 338.079C214.841 337.852 214.712 337.649 214.531 337.499C214.349 337.352 214.124 337.268 213.891 337.259C213.657 337.248 213.426 337.311 213.231 337.439C213.038 337.571 212.891 337.76 212.811 337.979L195.301 392.549C195.163 393.009 195.129 393.494 195.201 393.969C195.262 394.444 195.422 394.9 195.671 395.309C195.934 395.706 196.274 396.046 196.671 396.309C197.066 396.58 197.512 396.771 197.981 396.869L198.001 396.909Z" fill="black"/>
<path opacity="0.15" d="M404.219 355.149L406.789 353.589C409.716 351.802 413.079 350.857 416.509 350.859H426.919L415.679 353.269L408.679 356.399L406.109 357.999" fill="black"/>
<path opacity="0.15" d="M180.19 417.439L261.31 427.519L260.8 430.409L182.53 422.999C178.844 422.694 175.384 421.096 172.76 418.489C171.239 417.013 170.136 415.16 169.563 413.119C168.991 411.078 168.969 408.921 169.5 406.869C169.5 406.869 170.14 415.279 180.19 417.439Z" fill="black"/>
<path d="M268.091 264.869C267.791 264.869 267.701 265.069 267.751 265.309C268.045 266.249 268.61 267.082 269.375 267.702C270.14 268.322 271.071 268.703 272.052 268.796C273.033 268.889 274.019 268.69 274.887 268.224C275.755 267.759 276.466 267.047 276.931 266.179C276.955 266.131 276.968 266.077 276.968 266.023C276.968 265.969 276.955 265.915 276.931 265.867C276.907 265.818 276.872 265.776 276.828 265.744C276.785 265.711 276.735 265.689 276.681 265.679L268.091 264.869Z" fill="white"/>
</svg>
